<svg xmlns="http://www.w3.org/2000/svg" width="16" height="128"><linearGradient id="a" x1="8" x2="8" y1="2" y2="126" gradientUnits="userSpaceOnUse"><stop offset="0" stop-color="#1678e0"/><stop offset=".5" stop-color="#41acc5"/><stop offset="1" stop-color="#49ccba"/></linearGradient><path fill="none" stroke="url(#a)" stroke-linecap="round" stroke-width="2" d="M3 3h10m0 3H3m0 3h10m0 3H3m0 3h10m0 3H3m0 3h10m0 3H3m0 3h10m0 5H3m0 3h10m0 3H3m0 3h10m0 3H3m0 3h10m0 3H3m0 3h10m0 3H3m0 3h10m0 3H3m0 3h10m0 3H3m0 3h10m0 3H3m0 3h10m0 3H3m0 3h10m0 3H3m0 3h10m0 3H3m0 3h10m0 3H3m0 3h10m0 3H3m0 3h10m0 3H3m0 3h10m0 3H3m0 3h10m0 3H3m0 3h10" opacity=".7"/></svg>