<svg xmlns="http://www.w3.org/2000/svg" width="16" height="16"><linearGradient id="a" x2="0" y2="16" gradientUnits="userSpaceOnUse"><stop offset=".188" stop-color="#ff2929"/><stop stop-color="#ffe337"/><stop offset=".313" stop-color="#ffe337"/><stop stop-color="#74ff34"/><stop offset=".438" stop-color="#74ff34"/><stop stop-color="#2cff98"/><stop offset=".563" stop-color="#2cff98"/><stop stop-color="#22ccff"/><stop offset=".688" stop-color="#22ccff"/><stop stop-color="#702aff"/><stop offset=".813" stop-color="#702aff"/><stop stop-color="#ff2781"/></linearGradient><path fill="url(#a)" d="M12 11a3 3 0 0 0 .414-5.969 4.5 5 0 0 0-8.824 0 3 3 0 0 0 .414 5.967zm-8 1a1 1 0 0 0 0 2 1 1 0 0 0 0-2zm8 0a1 1 0 0 0 0 2 1 1 0 0 0 0-2zm-4 1a1 1 0 0 0 0 2 1 1 0 0 0 0-2z"/></svg>