<svg xmlns="http://www.w3.org/2000/svg" width="16" height="16"><linearGradient id="a" x2="0" y2="16" gradientUnits="userSpaceOnUse"><stop offset=".188" stop-color="#ff2929"/><stop stop-color="#ffe337"/><stop offset=".313" stop-color="#ffe337"/><stop stop-color="#74ff34"/><stop offset=".438" stop-color="#74ff34"/><stop stop-color="#2cff98"/><stop offset=".563" stop-color="#2cff98"/><stop stop-color="#22ccff"/><stop offset=".688" stop-color="#22ccff"/><stop stop-color="#702aff"/><stop offset=".813" stop-color="#702aff"/><stop stop-color="#ff2781"/></linearGradient><path fill="url(#a)" d="M1.685 13a7 7 0 1 1 12.631 0zM3 10a1 1 0 0 0 0 2h1a1 1 0 0 0 0-2zm7 0a1 1 0 0 0 1-1h1a1 1 0 0 0 0-2h-2a1 1 0 0 0-1 1H8a1 1 0 0 0 0 2z"/></svg>