<svg xmlns="http://www.w3.org/2000/svg" width="16" height="16"><linearGradient id="a" x2="0" y2="16" gradientUnits="userSpaceOnUse"><stop offset=".188" stop-color="#ff2929"/><stop stop-color="#ffe337"/><stop offset=".313" stop-color="#ffe337"/><stop stop-color="#74ff34"/><stop offset=".438" stop-color="#74ff34"/><stop stop-color="#2cff98"/><stop offset=".563" stop-color="#2cff98"/><stop stop-color="#22ccff"/><stop offset=".688" stop-color="#22ccff"/><stop stop-color="#702aff"/><stop offset=".813" stop-color="#702aff"/><stop stop-color="#ff2781"/></linearGradient><path fill="#2fa139" d="M8 14.25a1 1 0 0 0 1.084-1.084V9.753l3.851 1.927a1.084 1.084 0 0 0 .97-1.94L10.424 8l3.481-1.74a1.084 1.084 0 0 0-.97-1.94L9.084 6.247V2.834A1 1 0 0 0 8 1.75z"/><path fill="url(#a)" d="M8 1.75a1 1 0 0 0-1.084 1.084v3.413L3.065 4.32a1 1 0 0 0-.97 1.94L5.576 8 2.095 9.74a1 1 0 0 0 .97 1.94l3.851-1.927v3.413A1 1 0 0 0 8 14.25z"/></svg>